<svg width="99" height="99" viewBox="0 0 99 99" fill="none" xmlns="http://www.w3.org/2000/svg">
<path d="M18.5295 83.873L11.6012 6.16992H87.7287L80.7912 83.8607L49.6187 92.5033L18.5295 83.873Z" fill="#E44F26"/>
<path d="M49.665 85.8989L74.8558 78.9151L80.782 12.5248H49.665V85.8989Z" fill="#F1662A"/>
<path d="M49.665 41.3416H37.0542L36.1847 31.5828H49.665V22.0522H25.7692L25.9973 24.6114L28.3376 50.8722H49.665V41.3416ZM49.665 66.0915L49.6218 66.1038L39.009 63.2394L38.3307 55.639H28.7631L30.0982 70.5993L49.6218 76.0198L49.665 76.0075V66.0915Z" fill="#EBEBEB"/>
<path d="M49.6311 41.3416V50.8722H61.3662L60.2624 63.2332L49.6311 66.1007V76.0167L69.1701 70.5993L69.312 68.9898L71.5505 43.9007L71.7848 41.3416H49.6311ZM49.6311 22.0522V31.5828H72.6512L72.8424 29.443L73.2771 24.6114L73.5053 22.0522H49.6311Z" fill="white"/>
</svg>
