<svg width="99" height="99" viewBox="0 0 99 99" fill="none" xmlns="http://www.w3.org/2000/svg">
<path d="M75.5417 0.0032959H23.125C10.3534 0.0032959 0 10.3567 0 23.1283V75.545C0 88.3165 10.3534 98.67 23.125 98.67H75.5417C88.3132 98.67 98.6667 88.3165 98.6667 75.545V23.1283C98.6667 10.3567 88.3132 0.0032959 75.5417 0.0032959Z" fill="#F4F2ED"/>
<path d="M39.1714 70.3877C39.1714 70.3877 36.2114 72.1892 41.2314 72.7045C47.2933 73.4769 50.4984 73.3477 57.1904 72.0616C57.1904 72.0616 58.9918 73.2213 61.4377 74.1213C46.3775 80.5562 27.3295 73.7351 39.1714 70.3877ZM37.2408 62.0223C37.2408 62.0223 34.0226 64.4681 39.0423 64.9819C45.6052 65.6252 50.7555 65.7543 59.6362 63.954C59.6362 63.954 60.796 65.2417 62.7254 65.8849C44.5788 71.2904 24.2415 66.3987 37.2408 62.0234V62.0223ZM72.7647 76.6951C72.7647 76.6951 74.9523 78.4965 70.3188 79.9133C61.6948 82.4871 34.1517 83.2607 26.4291 79.9133C23.7277 78.7536 28.8754 77.0797 30.5477 76.8242C32.2212 76.438 33.1215 76.438 33.1215 76.438C30.1615 74.3783 13.4286 80.6853 24.6265 82.5002C55.3878 87.5211 80.7444 80.3126 72.7635 76.7082L72.7647 76.6951ZM40.587 53.2691C40.587 53.2691 26.5571 56.6164 35.5658 57.7734C39.4273 58.2872 47.0208 58.1596 54.1001 57.6443C59.8922 57.1302 65.6973 56.1 65.6973 56.1C65.6973 56.1 63.6373 57.0011 62.222 57.9014C47.9234 61.6372 20.5084 59.9638 28.3601 56.1023C35.0548 52.8841 40.587 53.2691 40.587 53.2691ZM65.6838 67.2986C80.1011 59.8331 73.4064 52.6258 68.7729 53.5273C67.6132 53.7844 67.0995 54.0415 67.0995 54.0415C67.0995 54.0415 67.4853 53.2691 68.3867 53.0135C77.5246 49.7953 84.7334 62.6667 65.4271 67.6864C65.4271 67.6864 65.5562 67.5572 65.6838 67.3002V67.2986ZM42.0023 87.6332C55.9031 88.5347 77.1399 87.1191 77.6552 80.5535C77.6552 80.5535 76.6273 83.1273 66.2007 85.0582C54.3599 87.2459 39.6855 86.9888 31.063 85.572C31.063 85.572 32.8644 87.1164 42.0034 87.6317L42.0023 87.6332Z" fill="#4E7896"/>
<path d="M56.9203 10.7949C56.9203 10.7949 64.8999 18.9037 49.3268 31.1295C36.8416 41.0393 46.4936 46.7034 49.3268 53.1372C41.9904 46.5743 36.7152 40.7811 40.3169 35.3753C45.6068 27.3998 60.1489 23.5383 56.9203 10.7949ZM52.8021 47.734C56.5341 51.9813 51.7742 55.8428 51.7742 55.8428C51.7742 55.8428 61.2982 50.9534 56.923 44.902C52.9324 39.1099 49.8436 36.2779 66.5761 26.6236C66.5761 26.6236 40.1901 33.1865 52.8048 47.7313L52.8021 47.734Z" fill="#F58219"/>
</svg>
