<svg width="100" height="99" viewBox="0 0 100 99" fill="none" xmlns="http://www.w3.org/2000/svg">
<g clip-path="url(#clip0_22_154)">
<path d="M76.2067 0.0032959H23.79C11.0185 0.0032959 0.665039 10.3567 0.665039 23.1283V75.545C0.665039 88.3165 11.0185 98.67 23.79 98.67H76.2067C88.9783 98.67 99.3317 88.3165 99.3317 75.545V23.1283C99.3317 10.3567 88.9783 0.0032959 76.2067 0.0032959Z" fill="#F4F2ED"/>
<path d="M19.6114 38.6398H30.5603C33.7739 38.6668 36.1026 39.5933 37.5464 41.4179C38.9901 43.2425 39.4665 45.7346 38.9762 48.8942C38.7859 50.338 38.3634 51.754 37.7098 53.143C37.0831 54.5321 36.212 55.7847 35.0951 56.9016C33.733 58.3177 32.2762 59.2164 30.7237 59.598C29.1712 59.9796 27.5641 60.17 25.9029 60.17H21.0004L19.448 67.9323H13.7692L19.6114 38.6398ZM24.3913 43.2972L21.9401 55.5534C22.1035 55.5804 22.2669 55.5943 22.4303 55.5943H23.0023C25.6169 55.6213 27.7961 55.363 29.5389 54.8181C31.2818 54.2461 32.4535 52.2581 33.0524 48.8534C33.5426 45.9936 33.0524 44.3455 31.5816 43.91C30.1379 43.4745 28.3272 43.2702 26.148 43.2972C25.8212 43.3242 25.5082 43.338 25.2084 43.338H24.3505L24.3913 43.2972ZM45.4451 30.8367H51.083L49.4896 38.6398H54.5556C57.3336 38.6945 59.4033 39.2665 60.7654 40.3557C62.1544 41.4449 62.563 43.5153 61.991 46.5655L59.2538 60.17H53.5342L56.1489 47.1783C56.421 45.8163 56.3393 44.8497 55.9037 44.2777C55.4682 43.7057 54.5286 43.4198 53.0848 43.4198L48.55 43.3789L45.2 60.17H39.5621L45.4451 30.8367ZM68.0451 38.6398H78.9941C82.2077 38.6668 84.5363 39.5933 85.9801 41.4179C87.4239 43.2425 87.9003 45.7346 87.41 48.8942C87.2196 50.338 86.7972 51.754 86.1435 53.143C85.5168 54.5321 84.6458 55.7847 83.5289 56.9016C82.1668 58.3177 80.7099 59.2164 79.1575 59.598C77.605 59.9796 75.9978 60.17 74.3367 60.17H69.4342L67.8817 67.9323H62.203L68.0451 38.6398ZM72.8251 43.2972L70.3738 55.5534C70.5372 55.5804 70.7007 55.5943 70.8641 55.5943H71.436C74.0507 55.6213 76.2299 55.363 77.9727 54.8181C79.7156 54.2461 80.8872 52.2581 81.4862 48.8534C81.9764 45.9936 81.4862 44.3455 80.0154 43.91C78.5716 43.4745 76.761 43.2702 74.5818 43.2972C74.255 43.3242 73.942 43.338 73.6422 43.338H72.7842L72.8251 43.2972Z" fill="black"/>
</g>
<defs>
<clipPath id="clip0_22_154">
<rect width="98.6667" height="98.6667" fill="white" transform="translate(0.665039 0.0032959)"/>
</clipPath>
</defs>
</svg>
