<svg width="99" height="99" viewBox="0 0 99 99" fill="none" xmlns="http://www.w3.org/2000/svg">
<g clip-path="url(#clip0_22_218)">
<path d="M75.5442 0H23.1258C10.3538 0 0 10.3538 0 23.1258V75.5442C0 88.3162 10.3538 98.67 23.1258 98.67H75.5442C88.3162 98.67 98.67 88.3162 98.67 75.5442V23.1258C98.67 10.3538 88.3162 0 75.5442 0Z" fill="#242938"/>
<path d="M49.3354 56.6393C53.3069 56.6393 56.526 53.4198 56.526 49.4488C56.526 45.4777 53.3069 42.2582 49.3354 42.2582C45.3643 42.2582 42.1448 45.4777 42.1448 49.4488C42.1448 53.4198 45.3643 56.6393 49.3354 56.6393Z" fill="#00D8FF"/>
<path d="M49.3358 34.8286C58.99 34.8286 67.9586 36.2138 74.721 38.5422C82.8686 41.347 87.878 45.5987 87.878 49.4487C87.878 53.4607 82.5691 57.9775 73.8194 60.8763C67.2047 63.0679 58.5002 64.2118 49.3358 64.2118C39.9398 64.2118 31.0421 63.138 24.3526 60.8521C15.8894 57.9594 10.7921 53.3844 10.7921 49.4487C10.7921 45.6299 15.5752 41.411 23.6084 38.6105C30.3958 36.2439 39.5856 34.8286 49.3343 34.8286H49.3358Z" stroke="#00D8FF" stroke-width="3"/>
<path d="M36.6085 42.1807C41.4318 33.8176 47.1118 26.7404 52.5071 22.0459C59.007 16.3889 65.1931 14.1734 68.5279 16.0964C72.0033 18.1006 73.264 24.9566 71.4043 33.9841C69.9994 40.809 66.6408 48.9207 62.0623 56.8598C57.3681 64.9993 51.9933 72.1706 46.6717 76.822C39.9378 82.7082 33.4275 84.8385 30.0184 82.8724C26.7103 80.9661 25.4453 74.714 27.0325 66.356C28.3734 59.2938 31.7386 50.6258 36.6069 42.1807H36.6085Z" stroke="#00D8FF" stroke-width="3"/>
<path d="M36.6205 56.8809C31.7837 48.5271 28.4906 40.07 27.1162 33.0513C25.4615 24.5946 26.6313 18.1291 29.9633 16.2004C33.4357 14.19 40.0045 16.5218 46.8968 22.6417C52.1078 27.2684 57.4587 34.2281 62.0504 42.1594C66.758 50.2912 70.2862 58.5298 71.6587 65.4629C73.3955 74.2368 71.9898 80.9406 68.5838 82.9121C65.2791 84.8253 59.2313 82.7999 52.7827 77.2505C47.3343 72.5621 41.505 65.318 36.6205 56.8809Z" stroke="#00D8FF" stroke-width="3"/>
</g>
<defs>
<clipPath id="clip0_22_218">
<rect width="98.67" height="98.67" fill="white"/>
</clipPath>
</defs>
</svg>
