<svg width="100" height="99" viewBox="0 0 100 99" fill="none" xmlns="http://www.w3.org/2000/svg">
<path d="M18.8628 83.873L11.9377 6.16992H88.059L81.1246 83.8607L49.9521 92.5033L18.8628 83.873Z" fill="#1572B6"/>
<path d="M49.9984 85.8989L75.1892 78.9151L81.1153 12.5248H49.9984V85.8989Z" fill="#33A9DC"/>
<path d="M49.9984 40.6756H62.6092L63.4787 30.9168H49.9984V21.3862H73.8942L73.666 23.9423L71.3258 50.2061H49.9984V40.6756Z" fill="white"/>
<path d="M50.0569 65.4256L50.0138 65.4379L39.4009 62.5704L38.7226 54.97H29.155L30.4901 69.9334L50.0107 75.3539L50.0569 75.3416V65.4256Z" fill="#EBEBEB"/>
<path d="M61.7983 49.8022L60.6513 62.5642L50.023 65.4317V75.3477L69.559 69.9333L69.7039 68.3238L71.3597 49.8022H61.7983Z" fill="white"/>
<path d="M50.0323 21.3862V30.9168H27.0121L26.8209 28.7739L26.3862 23.9423L26.158 21.3862H50.0323ZM49.9984 40.6756V50.2061H39.5181L39.3269 48.0632L38.8953 43.2316L38.6671 40.6756H49.9984Z" fill="#EBEBEB"/>
</svg>
