<svg width="99" height="99" viewBox="0 0 99 99" fill="none" xmlns="http://www.w3.org/2000/svg">
<g clip-path="url(#clip0_22_158)">
<path d="M76.2067 0.0032959H23.79C11.0185 0.0032959 0.665039 10.3567 0.665039 23.1283V75.545C0.665039 88.3165 11.0185 98.67 23.79 98.67H76.2067C88.9783 98.67 99.3317 88.3165 99.3317 75.545V23.1283C99.3317 10.3567 88.9783 0.0032959 76.2067 0.0032959Z" fill="#F0DB4F"/>
<path d="M26.6082 82.4562L34.1585 77.8867C35.6154 80.4693 36.9405 82.6547 40.119 82.6547C43.1657 82.6547 45.0867 81.4629 45.0867 76.8272V45.3008H54.359V76.9582C54.359 86.5616 48.7296 90.933 40.5164 90.933C33.099 90.933 28.7935 87.0916 26.6078 82.4554M59.3952 81.4626L66.9448 77.0916C68.9324 80.3371 71.5155 82.7213 76.085 82.7213C79.9272 82.7213 82.3769 80.8004 82.3769 78.1511C82.3769 74.9721 79.8601 73.846 75.6213 71.9921L73.3038 70.9981C66.6141 68.1507 62.1764 64.574 62.1764 57.0237C62.1764 50.0692 67.4751 44.7705 75.7543 44.7705C81.6488 44.7705 85.8876 46.824 88.934 52.1886L81.7147 56.8248C80.1249 53.977 78.4036 52.8512 75.7543 52.8512C73.0386 52.8512 71.3166 54.5732 71.3166 56.8248C71.3166 59.6064 73.0386 60.7325 77.0123 62.455L79.3302 63.4482C87.2115 66.8264 91.6492 70.2697 91.6492 78.0185C91.6492 86.3643 85.0925 90.9338 76.2838 90.9338C67.674 90.9338 62.1105 86.8276 59.3952 81.4626Z" fill="#323330"/>
</g>
<defs>
<clipPath id="clip0_22_158">
<rect width="98.6667" height="98.6667" fill="white" transform="translate(0.665039 0.0032959)"/>
</clipPath>
</defs>
</svg>
