<svg width="100" height="100" viewBox="0 0 100 100" fill="none" xmlns="http://www.w3.org/2000/svg">
<g clip-path="url(#clip0_22_203)">
<path d="M76.0426 0.670044H23.6241C10.8521 0.670044 0.498352 11.0238 0.498352 23.7958V76.2143C0.498352 88.9863 10.8521 99.34 23.6241 99.34H76.0426C88.8146 99.34 99.1684 88.9863 99.1684 76.2143V23.7958C99.1684 11.0238 88.8146 0.670044 76.0426 0.670044Z" fill="#F4F2ED"/>
<path d="M49.5555 11.8475C29.9864 11.8475 31.2083 20.3339 31.2083 20.3339L31.2302 29.1256H49.9047V31.7658H23.8126C23.8126 31.7658 11.2904 30.3451 11.2904 50.0902C11.2904 69.8358 22.22 69.1359 22.22 69.1359H28.743V59.9731C28.743 59.9731 28.3915 49.0434 39.4985 49.0434H58.0199C58.0199 49.0434 68.4261 49.2115 68.4261 38.986V22.0792C68.4261 22.0792 70.006 11.8475 49.5555 11.8475ZM39.2583 17.7596C39.6997 17.7592 40.1368 17.8458 40.5446 18.0145C40.9524 18.1831 41.323 18.4306 41.6351 18.7427C41.9472 19.0548 42.1946 19.4253 42.3633 19.8332C42.532 20.241 42.6186 20.6781 42.6181 21.1194C42.6185 21.5607 42.5319 21.9978 42.3632 22.4056C42.1945 22.8134 41.947 23.1839 41.635 23.4959C41.3229 23.808 40.9523 24.0554 40.5445 24.2241C40.1367 24.3927 39.6996 24.4793 39.2583 24.4788C38.8171 24.4792 38.38 24.3926 37.9723 24.2239C37.5645 24.0553 37.194 23.8078 36.882 23.4958C36.5699 23.1838 36.3225 22.8133 36.1538 22.4055C35.9851 21.9977 35.8985 21.5607 35.8989 21.1194C35.8985 20.6781 35.9851 20.2411 36.1537 19.8332C36.3224 19.4254 36.5698 19.0549 36.8818 18.7428C37.1939 18.4307 37.5644 18.1833 37.9722 18.0146C38.38 17.8459 38.817 17.7592 39.2583 17.7596Z" fill="url(#paint0_linear_22_203)"/>
<path d="M50.1112 88.5318C69.6803 88.5318 68.4585 80.0458 68.4585 80.0458L68.4365 71.2537H49.762V68.6139H75.8541C75.8541 68.6139 88.3763 70.0342 88.3763 50.2887C88.3763 30.5431 77.4467 31.2434 77.4467 31.2434H70.9237V40.4062C70.9237 40.4062 71.2752 51.3359 60.1682 51.3359H41.6468C41.6468 51.3359 31.2402 51.1674 31.2402 61.3929V78.3002C31.2402 78.3002 29.6603 88.5318 50.1112 88.5318ZM60.4084 82.6197C59.9671 82.6201 59.53 82.5335 59.1222 82.3649C58.7144 82.1962 58.3438 81.9488 58.0318 81.6368C57.7197 81.3247 57.4722 80.9542 57.3035 80.5464C57.1348 80.1386 57.0482 79.7016 57.0486 79.2603C57.0481 78.8189 57.1347 78.3818 57.3034 77.974C57.4721 77.5662 57.7195 77.1956 58.0316 76.8835C58.3437 76.5714 58.7143 76.324 59.1221 76.1553C59.5299 75.9866 59.967 75.9 60.4084 75.9005C60.8497 75.9001 61.2868 75.9867 61.6946 76.1554C62.1024 76.3241 62.4729 76.5716 62.785 76.8836C63.0971 77.1957 63.3445 77.5662 63.5132 77.974C63.6819 78.3819 63.7686 78.8189 63.7682 79.2603C63.7685 79.7016 63.6819 80.1386 63.5131 80.5464C63.3444 80.9541 63.0969 81.3246 62.7849 81.6366C62.4728 81.9487 62.1023 82.1961 61.6945 82.3648C61.2867 82.5335 60.8497 82.6201 60.4084 82.6197Z" fill="url(#paint1_linear_22_203)"/>
</g>
<defs>
<linearGradient id="paint0_linear_22_203" x1="18.6984" y1="18.7452" x2="56.8995" y2="56.5651" gradientUnits="userSpaceOnUse">
<stop stop-color="#387EB8"/>
<stop offset="1" stop-color="#366994"/>
</linearGradient>
<linearGradient id="paint1_linear_22_203" x1="42.1463" y1="43.0306" x2="83.1699" y2="81.8114" gradientUnits="userSpaceOnUse">
<stop stop-color="#FFE052"/>
<stop offset="1" stop-color="#FFC331"/>
</linearGradient>
<clipPath id="clip0_22_203">
<rect width="98.67" height="98.67" fill="white" transform="translate(0.498352 0.670044)"/>
</clipPath>
</defs>
</svg>
