<svg width="100" height="99" viewBox="0 0 100 99" fill="none" xmlns="http://www.w3.org/2000/svg">
<path fill-rule="evenodd" clip-rule="evenodd" d="M49.9983 6.16687C58.5362 6.16687 66.8823 8.69864 73.9812 13.442C81.0802 18.1854 86.6132 24.9273 89.8805 32.8153C93.1478 40.7032 94.0026 49.3829 92.337 57.7567C90.6713 66.1305 86.56 73.8223 80.5228 79.8595C74.4856 85.8966 66.7938 90.008 58.42 91.6737C50.0462 93.3393 41.3665 92.4844 33.4786 89.2171C25.5907 85.9498 18.8487 80.4169 14.1053 73.3179C9.36197 66.219 6.8302 57.8728 6.8302 49.335C6.8302 37.8861 11.3783 26.9061 19.4739 18.8105C27.5694 10.7149 38.5494 6.16687 49.9983 6.16687Z" fill="#CC6699"/>
<path d="M77.0771 24.6428C75.1222 16.9774 62.4092 14.4675 50.3776 18.7288C42.8426 21.2607 35.881 25.2539 29.8912 30.4798C23.2649 36.6775 22.2073 42.0735 22.6421 44.3275C24.1838 52.2828 35.0776 57.4814 39.5578 61.3388V61.3604C38.2381 62.011 28.5684 66.9106 26.299 71.9057C23.9124 77.1846 26.6783 80.9711 28.5129 81.4798C31.2674 82.143 34.1604 81.9271 36.786 80.8626C39.4116 79.7981 41.6381 77.9383 43.1531 75.5442C44.4051 73.6045 45.1885 71.3999 45.4411 69.1051C45.6937 66.8102 45.4086 64.488 44.6085 62.3224C46.7665 61.7741 49.0097 61.6453 51.2163 61.9432C58.7892 62.8281 60.2754 67.555 59.9917 69.5346C59.8583 70.2392 59.5747 70.9069 59.1603 71.4922C58.7458 72.0774 58.2101 72.5666 57.5897 72.9264C57.0594 73.2563 56.896 73.3673 56.9422 73.614C57.007 73.9686 57.2506 73.9562 57.7038 73.8791C58.8419 73.5207 59.8446 72.826 60.58 71.8864C61.3153 70.9468 61.7488 69.8065 61.8233 68.6157C62.0052 63.9906 57.562 58.7919 49.6931 58.9245C47.4076 58.8592 45.1271 59.1718 42.9434 59.8495C42.8341 59.7246 42.7231 59.6013 42.6104 59.4795C37.7447 54.2901 28.7534 50.6177 29.1327 43.6399C29.2715 41.1022 30.1533 34.4235 46.4 26.3202C59.7204 19.6816 70.3829 21.51 72.2268 25.5586C74.8601 31.3431 66.5286 42.0889 52.6963 43.6399C51.1675 43.9502 49.5884 43.9124 48.0762 43.5291C46.5639 43.1459 45.1574 42.427 43.961 41.426C43.2333 40.6243 43.1253 40.5904 42.854 40.7384C42.4131 40.982 42.6937 41.6911 42.854 42.1105C43.3836 43.0651 44.0986 43.9042 44.9569 44.5788C45.8152 45.2534 46.7996 45.7497 47.8523 46.0388C53.2908 47.2205 58.9633 46.6595 64.065 44.4354C72.455 41.2009 78.9981 32.1818 77.0771 24.6428ZM41.4202 63.7131C42.0326 65.8243 42.0015 68.0702 41.3308 70.1636C41.2588 70.3815 41.1797 70.5973 41.0934 70.8111C41.007 71.0249 40.9135 71.2305 40.8128 71.4278C40.2938 72.4896 39.6217 73.4693 38.8178 74.3355C36.3109 77.0705 32.8051 78.1065 31.3034 77.2339C29.6816 76.2935 30.4925 72.4361 33.4002 69.3619C35.6344 67.1526 38.2103 65.318 41.0286 63.9289L41.4202 63.7131Z" fill="white"/>
</svg>
