<svg width="100" height="99" viewBox="0 0 100 99" fill="none" xmlns="http://www.w3.org/2000/svg">
<g clip-path="url(#clip0_22_214)">
<path d="M76.0459 0H23.6274C10.8554 0 0.501648 10.3538 0.501648 23.1258V75.5442C0.501648 88.3162 10.8554 98.67 23.6274 98.67H76.0459C88.8179 98.67 99.1716 88.3162 99.1716 75.5442V23.1258C99.1716 10.3538 88.8179 0 76.0459 0Z" fill="#F4F2ED"/>
<path fill-rule="evenodd" clip-rule="evenodd" d="M32.4923 42.3973C34.8049 33.147 40.5867 28.5219 49.8366 28.5219C63.7121 28.5219 65.4465 38.9285 72.3843 40.6629C77.0098 41.8196 81.0564 40.0851 84.5253 35.4596C82.2131 44.7095 76.4309 49.3351 67.181 49.3351C53.3055 49.3351 51.5711 38.9285 44.6333 37.194C40.0078 36.0377 35.9612 37.7722 32.4923 42.3973ZM15.1479 63.2105C17.4605 53.9606 23.242 49.3351 32.4923 49.3351C46.3678 49.3351 48.1022 59.7417 55.0399 61.4761C59.6655 62.6328 63.7121 60.8983 67.181 56.2728C64.8688 65.5227 59.0865 70.1483 49.8366 70.1483C35.9612 70.1483 34.2267 59.7417 27.289 58.0072C22.6638 56.8505 18.6168 58.585 15.1479 63.2105Z" fill="url(#paint0_linear_22_214)"/>
</g>
<defs>
<linearGradient id="paint0_linear_22_214" x1="33.8413" y1="28.5219" x2="63.5194" y2="71.4973" gradientUnits="userSpaceOnUse">
<stop stop-color="#32B1C1"/>
<stop offset="1" stop-color="#14C6B7"/>
</linearGradient>
<clipPath id="clip0_22_214">
<rect width="98.67" height="98.67" fill="white" transform="translate(0.501648)"/>
</clipPath>
</defs>
</svg>
