<svg width="99" height="99" viewBox="0 0 99 99" fill="none" xmlns="http://www.w3.org/2000/svg">
<path d="M75.5426 0H23.1242C10.3522 0 -0.00158691 10.3538 -0.00158691 23.1258V75.5442C-0.00158691 88.3162 10.3522 98.67 23.1242 98.67H75.5426C88.3146 98.67 98.6684 88.3162 98.6684 75.5442V23.1258C98.6684 10.3538 88.3146 0 75.5426 0Z" fill="#F4F2ED"/>
<mask id="mask0_22_194" style="mask-type:luminance" maskUnits="userSpaceOnUse" x="14" y="14" width="71" height="71">
<path d="M14.6447 14.6464H84.0221V84.0237H14.6447V14.6464Z" fill="white"/>
</mask>
<g mask="url(#mask0_22_194)">
<path fill-rule="evenodd" clip-rule="evenodd" d="M78.5493 68.6875C74.7759 68.5826 71.8486 68.9692 69.3953 70.0014C68.6888 70.2851 67.5553 70.2851 67.462 71.1743C67.8397 71.5474 67.8852 72.1579 68.2163 72.6751C68.7817 73.6137 69.7738 74.8779 70.6696 75.5339L73.689 77.6915C75.5291 78.8158 77.605 79.473 79.3976 80.5984C80.436 81.2552 81.4735 82.0993 82.5119 82.8035C83.0407 83.1785 83.361 83.7894 84.022 84.0226V83.8807C83.6921 83.4602 83.5969 82.8509 83.2681 82.3799L81.8509 81.0208C80.4838 79.1924 78.784 77.5967 76.944 76.2851C75.4339 75.2533 72.1323 73.8468 71.5187 72.1128L71.4258 72.0076C72.4622 71.9027 73.689 71.5377 74.6807 71.2564C76.2861 70.8359 77.7476 70.9284 79.3976 70.5067L81.664 69.8499V69.4294C80.8145 68.5857 80.2012 67.4599 79.3055 66.6636C76.8997 64.6004 74.2556 62.5834 71.5187 60.8956C70.0564 59.9583 68.1685 59.3474 66.6118 58.5518C66.044 58.2701 65.1017 58.1294 64.7717 57.6607C63.9203 56.6308 63.4497 55.2695 62.8365 54.0496L58.9679 45.8909C58.1188 44.062 57.5985 42.2331 56.5621 40.5453C51.7014 32.5735 46.416 27.7444 38.3004 23.0075C36.5556 22.0227 34.4797 21.5991 32.2723 21.0842L28.7341 20.8953C27.9778 20.5673 27.2236 19.6758 26.5629 19.2534C23.8734 17.5652 16.9372 13.9083 14.9538 18.7281C13.6799 21.7757 16.842 24.7762 17.9154 26.3245C18.719 27.4029 19.7555 28.6217 20.3232 29.8412C20.6404 30.6379 20.7464 31.4827 21.0775 32.3268C21.8314 34.3896 22.5398 36.6883 23.5308 38.6116C24.0596 39.5964 24.615 40.6293 25.2756 41.5197C25.6533 42.045 26.3143 42.2701 26.455 43.1138C25.794 44.0524 25.7485 45.4576 25.3708 46.6316C23.6714 51.9305 24.3324 58.4952 26.7383 62.3965C27.4945 63.5682 29.2764 66.1483 31.6942 65.1627C33.8175 64.3186 33.3438 61.6461 33.957 59.3011C34.0996 58.7391 34.0048 58.3637 34.2869 57.9876V58.0928L36.2222 61.9845C37.6849 64.282 40.2337 66.674 42.3559 68.2693C43.4875 69.1134 44.3844 70.568 45.7993 71.0829V70.9411H45.7064C45.4228 70.5206 44.9976 70.3313 44.6203 70.0033C43.7712 69.1596 42.8277 68.1274 42.1667 67.1901C40.1859 64.5645 38.4411 61.6565 36.8832 58.6559C36.1274 57.2024 35.4664 55.6079 34.8551 54.1545C34.5695 53.5914 34.5695 52.7461 34.0988 52.4667C33.39 53.4965 32.354 54.39 31.8325 55.6553C30.9356 57.6711 30.8427 60.1568 30.5128 62.7361C30.3224 62.7831 30.4068 62.7361 30.3224 62.8409C28.8142 62.467 28.2939 60.9176 27.7285 59.606C26.3132 56.2766 26.0761 50.9311 27.303 47.0857C27.6329 46.1009 29.0501 43.0059 28.4843 42.0682C28.1991 41.177 27.2575 40.6621 26.7371 39.9579C26.1239 39.0668 25.4652 37.9421 25.0401 36.9574C23.9085 34.3299 23.3427 31.4237 22.1147 28.7978C21.5469 27.5783 20.5572 26.3118 19.7543 25.1875C18.8574 23.921 17.8688 23.0295 17.1604 21.5298C16.9245 21.0044 16.5946 20.17 16.9719 19.6065C17.0652 19.2314 17.2552 19.0811 17.631 18.9971C18.2438 18.4714 19.9913 19.1378 20.6046 19.4172C22.3494 20.1214 23.8121 20.7774 25.2748 21.761C25.9358 22.2297 26.6443 23.1212 27.4934 23.3567H28.4855C29.9956 23.6843 31.693 23.4615 33.1068 23.882C35.6082 24.6807 37.8722 25.8516 39.9026 27.1189C46.083 31.011 51.1803 36.5442 54.6234 43.157C55.1892 44.2354 55.4251 45.2202 55.9454 46.3457C56.9375 48.6444 58.1643 50.9882 59.1529 53.2402C60.145 55.4441 61.0882 57.6966 62.5035 59.525C63.2119 60.5098 66.0417 61.0247 67.3152 61.5408C68.2595 61.9613 69.721 62.3398 70.5724 62.8548C72.1754 63.8395 73.78 64.965 75.2889 66.0434C76.0428 66.6046 78.4036 67.7775 78.5439 68.7129L78.5493 68.6875ZM30.4311 27.9387C29.7794 27.933 29.1296 28.0117 28.4982 28.173V28.2783H28.5911C28.9688 29.0287 29.6298 29.5448 30.1012 30.2016L31.1873 32.4525L31.2806 32.3476C31.9412 31.8789 32.2723 31.1285 32.2723 30.0042C31.989 29.6762 31.9424 29.3471 31.7065 29.0191C31.4232 28.5504 30.81 28.3149 30.4311 27.941V27.9387Z" fill="#00678C"/>
</g>
</svg>
